<?xml version="1.0" standalone="no"?>
<!DOCTYPE svg PUBLIC "-//W3C//DTD SVG 20010904//EN"
 "http://www.w3.org/TR/2001/REC-SVG-20010904/DTD/svg10.dtd">
<svg version="1.0" xmlns="http://www.w3.org/2000/svg"
 width="1400.000000pt" height="1400.000000pt" viewBox="0 0 1400.000000 1400.000000"
 preserveAspectRatio="xMidYMid meet">

<g transform="translate(0.000000,1400.000000) scale(0.100000,-0.100000)" stroke="none">
<path fill="#F39302" d="M10985 9844 c-226 -119 -561 -232 -916 -308 -126 -28 -408 -67 -614
-87 -192 -18 -626 -16 -965 6 -256 16 -321 16 -490 6 -238 -14 -263 -17 -370
-35 -19 -3 -80 -13 -135 -21 -132 -21 -431 -96 -575 -144 -350 -117 -654 -265
-930 -452 -106 -72 -270 -199 -257 -199 3 0 65 24 139 54 491 198 1068 337
1638 392 245 24 663 24 925 0 234 -22 626 -25 815 -7 586 55 1058 236 1521
583 116 86 319 255 319 264 0 2 -1 3 -2 3 -2 -1 -48 -26 -103 -55z"/>
<path fill="#266828" d="M7113 9858 c-545 -30 -1095 -224 -1698 -598 -290 -180 -554 -320
-790 -418 -364 -152 -800 -252 -1280 -291 -115 -10 -638 -7 -690 4 -69 14 6
-15 86 -34 449 -105 1029 -129 1534 -65 338 43 670 127 946 239 186 76 321
149 554 300 694 450 1567 734 2268 737 92 0 166 2 164 4 -2 2 -73 20 -158 39
-328 73 -629 100 -936 83z"/>
<path fill="#E30813" d="M7585 8843 c-342 -27 -518 -53 -760 -113 -403 -99 -767 -254 -1130
-480 -682 -425 -1200 -609 -1950 -692 -76 -8 -244 -13 -457 -13 -185 0 -335
-1 -334 -2 8 -8 263 -57 376 -73 245 -34 405 -43 692 -37 558 11 1028 97 1483
274 148 57 373 166 465 225 210 134 624 348 865 447 246 102 395 154 650 227
316 91 738 164 946 164 105 0 62 16 -103 38 -266 37 -558 50 -743 35z"/>
<path fill="#039EE3" d="M11675 8674 c-289 -127 -717 -228 -1145 -270 -121 -12 -262 -17 -460
-17 -316 0 -524 15 -845 62 -364 53 -596 67 -865 51 -677 -39 -1283 -213
-1807 -521 -72 -42 -103 -62 -216 -142 -16 -10 -26 -21 -24 -23 2 -2 53 12
113 31 676 217 1435 317 2079 275 194 -13 297 -25 530 -60 708 -109 1203 -88
1703 72 307 98 599 254 930 496 133 98 134 101 7 46z"/>
<path fill="#016D9C" d="M5461 8474 c-465 -211 -1198 -328 -1853 -296 -235 12 -505 39 -666
67 -362 62 -785 69 -1167 19 -650 -85 -1285 -322 -1695 -633 -25 -19 -38 -32
-30 -29 339 123 844 235 1270 282 474 53 996 44 1400 -24 655 -110 1183 -104
1640 20 356 97 660 247 1012 499 184 132 194 143 89 95z"/>
<path fill="#77B82A" d="M11025 7974 c-269 -113 -590 -187 -930 -215 -162 -13 -574 -7 -738
11 -59 7 -110 10 -113 7 -3 -2 4 -186 15 -408 20 -396 35 -729 46 -1059 3 -91
8 -203 10 -250 2 -47 7 -204 11 -350 4 -146 9 -348 13 -450 l6 -185 65 3 c102
5 446 40 660 68 442 57 953 157 1400 274 229 60 562 158 573 169 11 11 -274
721 -289 721 -6 0 -54 -18 -107 -40 -196 -82 -469 -170 -722 -233 -100 -25
-338 -77 -353 -77 -7 0 -32 193 -32 248 0 18 13 23 98 42 210 48 414 103 567
155 158 53 434 160 446 173 9 9 -237 637 -248 636 -4 0 -19 -5 -33 -11 -228
-98 -452 -179 -625 -227 -180 -50 -279 -75 -283 -71 -5 5 -31 205 -32 241 0
31 1 32 83 53 219 58 472 146 677 235 58 25 106 46 107 46 9 0 -6 43 -86 252
-49 128 -92 241 -96 251 -9 22 -18 21 -90 -9z"/>
<path fill="#77B82A" d="M7980 6984 c0 -495 -4 -892 -9 -884 -15 26 -175 473 -314 875 -75
214 -287 837 -287 841 0 3 -279 -48 -361 -66 -160 -35 -354 -88 -492 -133
-149 -49 -142 -38 -102 -147 144 -398 254 -691 427 -1140 101 -264 209 -536
424 -1066 l66 -161 171 -7 c95 -4 213 -9 262 -12 120 -6 932 -24 1114 -24
l144 0 -6 973 c-4 771 -22 1772 -31 1784 -3 4 -136 23 -267 39 -78 9 -259 18
-436 21 l-303 6 0 -899z"/>
<path fill="#77B82A" d="M5905 7620 c-430 -223 -961 -369 -1518 -419 -54 -4 -100 -10 -102
-13 -3 -2 -23 -67 -45 -144 -50 -170 -66 -224 -175 -579 -106 -345 -183 -588
-286 -899 -43 -132 -77 -242 -74 -244 2 -2 93 -6 202 -8 156 -4 562 -20 933
-37 l34 -2 41 158 40 158 125 -7 c69 -4 238 -14 375 -23 l250 -16 17 -55 c9
-30 31 -105 48 -166 l32 -112 61 -6 c34 -4 157 -13 272 -21 116 -9 271 -20
345 -25 74 -5 171 -12 215 -15 226 -17 297 -20 301 -14 2 4 -8 35 -23 70 -80
197 -491 1280 -571 1509 -17 47 -54 150 -82 230 -29 80 -99 282 -156 450 -58
167 -106 305 -107 306 -1 1 -69 -34 -152 -76z m-635 -432 c0 -18 118 -443 196
-702 36 -120 64 -219 62 -221 -6 -4 -450 24 -455 29 -3 3 15 101 40 218 25
117 67 320 93 451 26 130 51 237 56 237 4 0 8 -6 8 -12z"/>
<path fill="#77B82A" d="M2025 7667 c-2 -7 -74 -201 -161 -432 -182 -490 -286 -756 -291 -751
-6 5 16 1069 22 1128 3 25 2 48 -2 51 -12 6 -270 -20 -428 -43 -137 -20 -494
-90 -567 -110 l-36 -10 -6 -73 c-26 -316 -49 -2387 -27 -2387 6 0 98 18 204
39 255 52 467 87 722 120 l210 27 53 119 c30 66 69 156 87 200 18 44 82 199
142 345 61 146 125 303 143 350 18 47 37 89 41 94 9 10 12 -13 39 -304 29
-306 80 -733 88 -742 4 -4 59 -3 122 2 63 5 185 12 270 15 85 3 187 8 225 10
39 2 165 4 280 5 l210 0 13 43 c27 87 125 394 143 447 70 207 406 1357 398
1364 -2 2 -78 6 -169 10 -252 10 -478 36 -679 77 -52 11 -95 18 -96 17 -2 -2
-24 -73 -50 -158 -82 -271 -148 -475 -155 -483 -4 -5 -10 34 -14 85 -18 254
-36 560 -42 710 -4 92 -10 171 -13 176 -10 16 -290 47 -589 66 -60 4 -84 2
-87 -7z"/>
<path fill="#9E9C9D" d="M12033 5203 c-19 -7 -16 -28 22 -137 19 -56 43 -133 55 -172 21 -74
48 -111 75 -100 28 10 27 32 -9 124 -19 49 -45 125 -56 168 -30 111 -47 134
-87 117z"/>
<path fill="#9E9C9D" d="M11612 5074 c-6 -11 0 -43 18 -97 15 -45 31 -99 34 -120 l7 -39 -31
7 c-49 11 -117 -3 -150 -32 -69 -58 -91 -172 -50 -254 l21 -40 -65 -30 c-54
-25 -68 -28 -86 -19 -47 25 -103 209 -116 380 -7 91 -23 130 -53 130 -26 0
-35 -43 -26 -133 19 -200 81 -398 135 -437 52 -37 143 -19 218 45 23 19 36 24
45 17 21 -18 83 -24 125 -12 50 13 98 61 114 113 6 20 13 37 14 37 2 0 19 -11
39 -24 47 -32 85 -40 133 -26 74 20 143 116 96 134 -21 8 -17 10 -64 -29 -47
-39 -69 -43 -106 -19 -42 28 -71 92 -114 248 -23 82 -45 157 -51 167 -25 47
-69 64 -87 33z m57 -293 c19 -12 26 -135 12 -189 -16 -56 -42 -82 -84 -82
-107 0 -133 200 -35 260 34 21 83 26 107 11z"/>
<path fill="#9E9C9D" d="M3626 4964 c-3 -9 -6 -55 -6 -103 0 -48 -11 -150 -25 -229 -31 -175
-31 -202 -4 -231 40 -42 85 -55 198 -53 214 4 326 42 266 92 -11 9 -31 9 -84
1 -92 -14 -234 -14 -266 1 -14 6 -28 22 -32 36 -3 13 4 90 16 172 25 180 27
277 5 308 -18 25 -59 29 -68 6z"/>
<path fill="#9E9C9D" d="M4591 4956 c-7 -8 -20 -68 -29 -134 l-16 -120 -59 -4 c-96 -7 -97
-48 -1 -73 l48 -12 -3 -51 c-4 -76 24 -160 66 -199 30 -29 41 -33 89 -33 48 0
59 4 92 34 31 29 35 38 26 53 -16 26 -39 27 -73 2 -65 -48 -111 6 -111 130 l0
71 44 0 c59 0 106 18 106 40 0 23 -19 30 -81 30 -34 0 -51 5 -55 14 -3 8 2 65
11 126 12 86 13 115 4 126 -15 18 -43 18 -58 0z"/>
<path fill="#9E9C9D" d="M4952 4921 c-19 -11 -53 -98 -59 -151 -5 -41 -3 -51 11 -56 11 -4 25
0 36 12 20 21 61 160 53 180 -6 16 -27 24 -41 15z"/>
<path fill="#9E9C9D" d="M4188 4766 c-59 -21 -85 -42 -115 -93 -24 -40 -28 -59 -28 -118 0
-61 4 -76 29 -113 59 -87 164 -119 285 -88 68 17 121 49 121 72 0 25 -26 27
-120 8 -82 -15 -96 -16 -138 -3 -33 11 -54 25 -69 49 -13 18 -21 36 -18 38 3
3 25 7 50 9 58 3 135 37 170 73 39 41 46 107 13 137 -23 21 -86 43 -123 43
-11 -1 -37 -7 -57 -14z m110 -83 c2 -12 -6 -30 -18 -41 -39 -36 -150 -51 -150
-20 0 17 68 76 92 81 47 10 73 3 76 -20z"/>
<path fill="#9E9C9D" d="M8231 4731 c-9 -15 -41 -208 -41 -243 0 -4 -22 -8 -48 -8 -28 0 -57
-6 -68 -15 -19 -15 -19 -15 3 -34 12 -10 40 -21 62 -25 l41 -6 0 -53 c0 -120
57 -218 135 -233 59 -11 145 37 145 81 0 34 -31 40 -74 14 -71 -42 -107 -6
-114 112 -4 73 -4 76 19 82 13 4 36 7 51 7 39 0 78 20 78 40 0 21 -28 30 -93
30 l-49 0 8 88 c5 48 9 107 9 132 0 41 -2 45 -27 48 -18 2 -30 -3 -37 -17z"/>
<path fill="#9E9C9D" d="M8500 4714 c-13 -33 -13 -94 2 -367 11 -205 14 -229 31 -238 37 -20
58 -7 80 50 13 37 39 74 77 114 73 74 92 74 103 -3 21 -146 57 -204 115 -184
31 11 41 43 20 58 -24 18 -35 47 -43 111 -13 110 -48 155 -120 155 -45 0 -121
-41 -148 -81 -9 -12 -19 -20 -22 -18 -9 10 -25 193 -25 296 0 56 -3 108 -6
117 -10 26 -53 20 -64 -10z"/>
<path fill="#9E9C9D" d="M11004 4726 c-17 -8 -51 -34 -75 -59 l-43 -46 -13 30 c-9 23 -18 29
-42 29 -16 0 -31 -5 -33 -12 -2 -6 2 -43 9 -82 8 -39 20 -113 28 -165 16 -106
29 -127 70 -117 l28 7 -7 82 c-5 61 -3 95 9 135 19 63 73 122 125 137 46 13
54 50 15 65 -32 12 -33 12 -71 -4z"/>
<path fill="#9E9C9D" d="M5193 4695 c-106 -53 -132 -112 -70 -159 17 -13 66 -40 109 -59 84
-39 103 -64 72 -98 -13 -15 -31 -19 -79 -19 -52 0 -69 5 -106 30 -44 30 -73
37 -83 22 -8 -13 51 -80 85 -98 41 -21 148 -29 192 -15 69 23 104 90 75 144
-16 31 -32 43 -125 89 -88 43 -99 60 -64 92 28 25 96 33 116 13 20 -21 45 -11
45 18 0 31 -44 65 -84 65 -18 0 -55 -11 -83 -25z"/>
<path fill="#9E9C9D" d="M12199 4648 c-10 -18 -8 -24 7 -35 23 -17 43 -13 57 9 8 12 7 21 -2
32 -19 23 -48 20 -62 -6z"/>
<path fill="#9E9C9D" d="M10445 4651 c-11 -5 -32 -22 -47 -37 -97 -104 -73 -299 44 -360 38
-20 135 -17 184 5 56 25 112 86 125 135 14 51 -1 135 -32 181 -41 60 -83 80
-173 82 -45 2 -90 -1 -101 -6z m141 -67 c47 -7 76 -44 82 -105 8 -89 -40 -148
-129 -157 -84 -8 -129 43 -129 148 0 51 10 80 38 112 14 17 36 18 138 2z"/>
<path fill="#9E9C9D" d="M5826 4604 c-31 -30 -16 -246 21 -322 29 -60 48 -50 127 68 39 57 76
106 82 107 8 3 14 -23 18 -74 18 -196 39 -203 178 -58 39 41 75 75 80 75 4 0
8 -12 8 -26 0 -44 22 -102 47 -126 33 -31 155 -39 205 -14 29 15 34 15 44 2
37 -51 170 -61 252 -20 117 58 147 220 60 320 -37 42 -71 60 -137 75 -69 15
-119 -1 -165 -51 -52 -58 -68 -103 -64 -182 3 -75 1 -78 -79 -78 -57 0 -73 24
-73 112 0 77 -14 98 -64 98 -36 0 -89 -34 -150 -94 -19 -20 -38 -36 -41 -36
-3 0 -5 13 -5 28 0 48 -29 130 -53 147 -12 8 -32 15 -44 15 -26 0 -93 -56
-133 -112 l-28 -38 -7 67 c-12 117 -40 157 -79 117z m938 -53 c3 -5 22 -12 42
-15 86 -17 121 -60 112 -140 -13 -109 -152 -167 -230 -97 -31 28 -33 33 -32
99 0 53 6 77 23 105 30 49 71 72 85 48z"/>
<path fill="#9E9C9D" d="M7053 4583 c-9 -22 21 -201 46 -283 23 -73 54 -128 76 -136 30 -12
61 26 142 167 109 193 120 216 107 237 -6 9 -22 17 -35 17 -28 0 -53 -35 -130
-180 -29 -55 -54 -102 -56 -105 -9 -11 -22 29 -43 129 -28 135 -44 171 -76
171 -14 0 -27 -7 -31 -17z"/>
<path fill="#9E9C9D" d="M7533 4549 c-129 -64 -162 -234 -66 -340 48 -53 93 -71 178 -72 117
0 240 62 192 97 -14 11 -27 11 -75 0 -121 -29 -218 -11 -247 47 -20 38 -20 39
18 39 46 0 127 25 167 52 18 13 42 39 52 60 17 33 18 39 5 71 -27 63 -142 87
-224 46z m142 -59 c11 -17 -24 -61 -60 -76 -51 -21 -105 -19 -105 4 0 19 43
65 70 75 26 10 89 7 95 -3z"/>
<path fill="#9E9C9D" d="M10201 4542 c-5 -10 -15 -55 -21 -101 -12 -88 -24 -131 -38 -131 -4
0 -30 37 -57 83 -59 101 -82 127 -111 127 -36 0 -52 -25 -85 -131 -17 -54 -34
-99 -39 -99 -9 0 -11 5 -52 120 -32 92 -70 143 -103 138 -31 -5 -29 -29 10
-140 45 -125 97 -222 132 -245 25 -17 26 -16 53 14 15 17 40 67 55 112 14 44
30 83 35 86 5 3 28 -27 51 -66 84 -140 131 -168 175 -102 24 36 59 167 69 259
6 49 4 63 -10 77 -22 22 -52 22 -64 -1z"/>
<path fill="#9E9C9D" d="M9058 4520 c-79 -43 -127 -137 -115 -225 9 -65 55 -133 110 -161 74
-39 201 -31 287 17 46 26 57 47 36 67 -13 14 -24 13 -92 -8 -102 -30 -172 -25
-214 15 -17 16 -30 34 -30 41 0 8 25 18 61 25 114 22 206 111 184 175 -16 45
-57 68 -128 71 -47 3 -71 -1 -99 -17z m126 -53 c41 -30 -36 -97 -111 -97 -48
0 -47 -1 -31 34 12 28 47 54 87 66 36 11 35 11 55 -3z"/>
</g>
</svg>
